inDegrees=yes
name=ik_lifting_orientations
DataType=double
version=3
OpenSimVersion=4.5-2024-01-10-34fd6af
endheader
time	pelvis_tilt	pelvis_list	pelvis_rotation	pelvis_tx	pelvis_ty	pelvis_tz	hip_flexion_r	hip_adduction_r	hip_rotation_r	knee_angle_r	knee_angle_r_beta	ankle_angle_r	subtalar_angle_r	mtp_angle_r	hip_flexion_l	hip_adduction_l	hip_rotation_l	knee_angle_l	knee_angle_l_beta	ankle_angle_l	subtalar_angle_l	mtp_angle_l	lumbar_extension	lumbar_bending	lumbar_rotation	arm_flex_r	arm_add_r	arm_rot_r	elbow_flex_r	pro_sup_r	wrist_flex_r	wrist_dev_r	arm_flex_l	arm_add_l	arm_rot_l	elbow_flex_l	pro_sup_l	wrist_flex_l	wrist_dev_l
1.25	-1.631042940522235	-5.853920866300023	100.6194342813236	0	0.9399999998679526	0	44.71191812689669	-10.09718550723887	0	60.15539304607842	1.049909671485369	-5.017578508262354	0	0	44.71191812689669	-10.09718550723887	0	60.15539304607842	1.049909671485369	-5.017578508262354	0	0	-5.553027647754461	-9.578125522507388	-40.79947093875683	118.5805316533619	-56.22808358230657	89.98569408300784	0.003640479600691981	0.9973503163005674	0	0	0	-11.92133153639203	0	88.98652957698282	0.9973503163005674	0	0
1.26	-1.631004184137456	-5.844248567475105	100.6248691781085	0	0.9399999998679526	0	44.71207171800575	-10.09700437519828	0	60.15532812475602	1.049908538394539	-5.017535771423843	0	0	44.71207171800575	-10.09700437519828	0	60.15532812475602	1.049908538394539	-5.017535771423843	0	0	-5.217808927197272	-9.097869082871318	-40.91508454350415	120.2343723971665	-55.17994850197276	89.9856558030845	0.003700390824867807	0.9969803871892376	0	0	0	-11.92217214075269	0	88.98690542062458	0.9969803871892376	0	0
1.27	-1.632488030311246	-5.851525526346495	100.6257554827264	0	0.9399999998679526	0	44.71220698441957	-10.09684522393236	0	60.15527089245452	1.049907539502439	-5.017498248342414	0	0	44.71220698441957	-10.09684522393236	0	60.15527089245452	1.049907539502439	-5.017498248342414	0	0	-4.467619187297361	-9.007906797810387	-42.22504273751785	119.6162896390004	-52.36898607365238	89.98594889673439	0.003797200947447341	0.9966544336516355	0	0	0	-11.92291309949566	0	88.98723658559327	0.9966544336516355	0	0
1.28	-1.79353295295029	-5.97525819515957	102.2160302176719	0	0.9399999998679526	0	44.71233140581668	-10.09669960222321	0	60.1552180558315	1.049906617329402	-5.017463956568982	0	0	44.71233140581668	-10.09669960222321	0	60.1552180558315	1.049906617329402	-5.017463956568982	0	0	-4.455465416063657	-8.866555008432627	-43.69056787404608	119.6358315068206	-52.61480269002423	89.98554177157268	0.00385505194388617	0.9963541644632317	0	0	0	-11.92359652795398	0	88.98754165554936	0.9963541644632317	0	0
1.29	-1.782355920248299	-5.960550667376427	102.2244734510959	0	0.9399999998679526	0	44.71248262106053	-10.09652178531418	0	60.1551541493137	1.049905501950253	-5.017422059158007	0	0	44.71248262106053	-10.09652178531418	0	60.1551541493137	1.049905501950253	-5.017422059158007	0	0	-3.617521715366264	-8.555799181829697	-44.90655633464218	120.5894592561782	-50.38493973623773	89.98549510395628	0.003959527661194214	0.9959898677177677	0	0	0	-11.92442442221283	0	88.98791177676985	0.9959898677177677	0	0
1.3	-1.791197167464381	-5.975735302133664	102.2073378677468	0	0.9399999998679526	0	44.71257311382637	-10.09641607694961	0	60.15511572365273	1.049904831295952	-5.017397188745668	0	0	44.71257311382637	-10.09641607694961	0	60.15511572365273	1.049904831295952	-5.017397188745668	0	0	-2.911241474942142	-8.772298393471893	-45.1966140673392	120.3213686704198	-49.39155272111829	89.9840939870396	0.004074314274020716	0.9957714422863027	0	0	0	-11.92492160715151	0	88.98813369443215	0.9957714422863027	0	0
1.31	-1.06995819791787	-5.865782307203929	103.1807665121318	0	0.9399999998679526	0	44.71270120378809	-10.09626606625781	0	60.15506148585202	1.04990388466775	-5.017361886404954	0	0	44.71270120378809	-10.09626606625781	0	60.15506148585202	1.04990388466775	-5.017361886404954	0	0	-2.573599430425999	-7.56150912776255	-45.96877467542803	121.6804759506934	-49.21922747567526	89.98339159124025	0.004181080969240885	0.995462574895674	0	0	0	-11.92562404062525	0	88.98844750006859	0.995462574895674	0	0
1.32	-1.790047182761627	-5.970899830774135	102.2161312964129	0	0.9399999998679526	0	44.71294493532287	-10.0959835028452	0	60.15495785209466	1.049902075917468	-5.01729560095283	0	0	44.71294493532287	-10.0959835028452	0	60.15495785209466	1.049902075917468	-5.01729560095283	0	0	-2.034882583930822	-7.731504272869126	-46.00481752863028	122.4272106479254	-47.11195365913213	89.98436339648381	0.004234736084886262	0.9948737055625554	0	0	0	-11.92696516724745	0	88.989045784349	0.9948737055625554	0	0
1.33	-1.806388810777892	-5.98548773522257	102.1950748665804	0	0.9399999998679526	0	44.71302636888263	-10.09588810412383	0	60.15492345791301	1.049901475625755	-5.01727316582741	0	0	44.71302636888263	-10.09588810412383	0	60.15492345791301	1.049901475625755	-5.01727316582741	0	0	-1.850783432467822	-7.307885562581708	-46.16096977412835	123.0287897093785	-46.78570147191555	89.9823604199742	0.004447601041349615	0.994677480451963	0	0	0	-11.92741111485394	0	88.98924514675807	0.994677480451963	0	0
1.34	-1.793006574237621	-5.973701209050762	102.2055135868246	0	0.9399999998679526	0	44.71312534769422	-10.09577403115152	0	60.15488111080624	1.049900736529313	-5.017246425248742	0	0	44.71312534769422	-10.09577403115152	0	60.15488111080624	1.049900736529313	-5.017246425248742	0	0	-1.491873559184293	-6.938324834219213	-45.92651549959274	123.7081804139579	-46.26784304069874	89.981525693984	0.00448882045415554	0.9944377754071606	0	0	0	-11.9279582045932	0	88.9894886842295	0.9944377754071606	0	0
1.35	-1.791311989273999	-5.97323248963989	102.2126447998329	0	0.9399999998679526	0	44.71321488538717	-10.0956693084949	0	60.15484328647607	1.049900076370214	-5.017221813977429	0	0	44.71321488538717	-10.0956693084949	0	60.15484328647607	1.049900076370214	-5.017221813977429	0	0	-1.468653230006076	-6.912381643600433	-45.84188068409364	123.3327524714746	-45.09465302587286	89.98176149533892	0.00462825529970563	0.9942219759941502	0	0	0	-11.92844870429479	0	88.98970793389837	0.9942219759941502	0	0
1.36	-1.798484926918541	-5.976039167281642	102.2065353216213	0	0.9399999998679526	0	44.7132871506055	-10.09558510425902	0	60.15481267915276	1.049899542171647	-5.017202041863983	0	0	44.7132871506055	-10.09558510425902	0	60.15481267915276	1.049899542171647	-5.017202041863983	0	0	-1.081346481944042	-6.541354286846276	-45.48831162396977	123.6735420028289	-45.15145177354248	89.98043106558374	0.004878832599907774	0.9940476211022511	0	0	0	-11.92884535413104	0	88.98988507641438	0.9940476211022511	0	0
1.37	-1.789337969650187	-5.974617340317937	102.2115828520465	0	0.9399999998679526	0	44.7133908511158	-10.09546407313678	0	60.15476884404865	1.049898777104752	-5.017173619375011	0	0	44.7133908511158	-10.09546407313678	0	60.15476884404865	1.049898777104752	-5.017173619375011	0	0	-1.036125334885573	-6.475066660995069	-45.54450863802841	124.1964739263026	-44.1933748537537	89.98070183473719	0.00494408917365889	0.9937975929795673	0	0	0	-11.92941381023634	0	88.99013910204694	0.9937975929795673	0	0
1.38	-1.912792165171515	-4.28021203515971	100.6862046886317	0	0.9399999998679526	0	44.71356748189889	-10.09526034180171	0	60.15469371107854	1.049897465787047	-5.017125931560542	0	0	44.71356748189889	-10.09526034180171	0	60.15469371107854	1.049897465787047	-5.017125931560542	0	0	-2.253756099587399	-6.00010871454851	-43.79149000317167	124.8100061296072	-44.04819273599762	89.97969802213407	0.005128160389726755	0.9933705768776699	0	0	0	-11.93038669210538	0	88.99057294534809	0.9933705768776699	0	0
1.39	-1.908739014928055	-4.268341857316198	100.6970781546949	0	0.9399999998679526	0	44.71363132495171	-10.09518628087821	0	60.15466663448232	1.049896993211293	-5.017108568566348	0	0	44.71363132495171	-10.09518628087821	0	60.15466663448232	1.049896993211293	-5.017108568566348	0	0	-2.53446026509233	-6.525157114387003	-42.57629921316435	124.786266048122	-44.99583757620945	89.98077286218381	0.005216243560683217	0.9932164204110684	0	0	0	-11.93073759301493	0	88.99072956649771	0.9932164204110684	0	0
1.4	-1.925754857789942	-4.2775609910238	100.6641454597852	0	0.9399999998679526	0	44.71657410338093	-10.0919526313424	0	60.15342765055714	1.049875368862419	-5.016371832608141	0	0	44.71657410338093	-10.0919526313424	0	60.15342765055714	1.049875368862419	-5.016371832608141	0	0	-2.399748059805976	-6.486828154591687	-42.24675938143695	123.799851286479	-44.54577793385448	89.98012711285163	0.005408752886349809	0.9861108839111232	0	0	0	-11.94686591571589	0	88.99794870772281	0.9861108839111232	0	0
1.41	-1.931906077734796	-4.273663976783284	100.6724549878681	0	0.9399999998679526	0	44.7166503910959	-10.09186620486925	0	60.15339525155447	1.049874803393148	-5.016351762144955	0	0	44.7166503910959	-10.09186620486925	0	60.15339525155447	1.049874803393148	-5.016351762144955	0	0	-1.851712072407556	-6.159557265110958	-41.65682657973144	124.892630293438	-44.45481786060964	89.98082581778918	0.005638111034468878	0.9859261513262606	0	0	0	-11.94728710467233	0	88.99813639382822	0.9859261513262606	0	0
1.42	-1.936753217058438	-4.277872365980748	100.6644505311294	0	0.9399999998679526	0	44.71671405197445	-10.09179385173343	0	60.15336829931196	1.049874332987776	-5.016334952387357	0	0	44.71671405197445	-10.09179385173343	0	60.15336829931196	1.049874332987776	-5.016334952387357	0	0	-1.854309810061753	-6.167098768384683	-41.68731204605491	125.1160431967579	-44.02071379559517	89.98101440767722	0.005739970312031216	0.9857721709911755	0	0	0	-11.94763782891532	0	88.99829283602001	0.9857721709911755	0	0
1.43	-1.920516525363486	-4.266993098369949	100.6825216150658	0	0.9399999998679526	0	44.71682426510536	-10.09166899103381	0	60.15332153785187	1.049873516846334	-5.016305965723003	0	0	44.71682426510536	-10.09166899103381	0	60.15332153785187	1.049873516846334	-5.016305965723003	0	0	-1.91329812778846	-6.513899974427138	-40.19019699146551	124.5498160494282	-45.40382857820651	89.98098164035066	0.005990485985426511	0.9855053548619418	0	0	0	-11.94824601229499	0	88.99856391803068	0.9855053548619418	0	0
1.44	-1.910958608117287	-4.271176371277055	100.6741290976873	0	0.9399999998679526	0	44.71912879806408	-10.08894733901339	0	60.15239923503465	1.049857419625473	-5.015678756254243	0	0	44.71912879806408	-10.08894733901339	0	60.15239923503465	1.049857419625473	-5.015678756254243	0	0	-2.280770131190411	-5.637827173737787	-39.77067823622178	124.9028066110324	-45.22952612371871	89.98019762077419	0.006171439319058994	0.98007210762083	0	0	0	-11.96032721323654	0	89.00408403758138	0.98007210762083	0	0
